<svg width="210" height="53" viewBox="0 0 210 53" fill="none" xmlns="http://www.w3.org/2000/svg">
<path d="M32.7188 8.88281C32.7188 9.64844 32.5938 10.5234 32.3438 11.5078C32.1094 12.4766 31.7969 13.5234 31.4062 14.6484C31.0312 15.7578 30.5938 16.9297 30.0938 18.1641C29.5938 19.3828 29.0781 20.6328 28.5469 21.9141C28.0312 23.1797 27.5234 24.4531 27.0234 25.7344C26.5234 27 26.0781 28.25 25.6875 29.4844C25.3125 30.7031 25 31.8828 24.75 33.0234C24.5156 34.1641 24.3984 35.2266 24.3984 36.2109C24.3984 37.3203 24.6797 38.2109 25.2422 38.8828C25.8047 39.5547 26.7109 39.8906 27.9609 39.8906C28.9922 39.8906 29.9844 39.6484 30.9375 39.1641C31.8906 38.6797 32.8359 37.9609 33.7734 37.0078C34.7266 36.0391 35.6875 34.8359 36.6562 33.3984C37.6406 31.9609 38.6719 30.2891 39.75 28.3828L40.9688 26.2266L41.6016 26.6719L40.3828 28.8281C39.2109 30.9062 38.1016 32.7109 37.0547 34.2422C36.0078 35.7734 34.9688 37.0469 33.9375 38.0625C32.9219 39.0625 31.875 39.8047 30.7969 40.2891C29.7344 40.7891 28.5938 41.0391 27.375 41.0391C26.2031 41.0391 25.2109 40.9062 24.3984 40.6406C23.5859 40.375 22.9219 40 22.4062 39.5156C21.8906 39.0156 21.5156 38.4219 21.2812 37.7344C21.0625 37.0312 20.9531 36.25 20.9531 35.3906C20.9531 34.6406 21.0703 33.7422 21.3047 32.6953C21.5547 31.6484 21.8828 30.5156 22.2891 29.2969C22.6953 28.0625 23.1484 26.7656 23.6484 25.4062C24.1641 24.0469 24.6875 22.6797 25.2188 21.3047C25.7656 19.9141 26.2891 18.5469 26.7891 17.2031C27.3047 15.8438 27.7656 14.5625 28.1719 13.3594C28.5781 12.1562 28.8984 11.0547 29.1328 10.0547C29.3828 9.05469 29.5078 8.20312 29.5078 7.5C29.5078 6.17188 29.1641 5.14062 28.4766 4.40625C27.8047 3.67188 26.9297 3.30469 25.8516 3.30469C24.9141 3.30469 23.9688 3.57031 23.0156 4.10156C22.0781 4.63281 21.125 5.40625 20.1562 6.42188C19.2031 7.42188 18.2266 8.65625 17.2266 10.125C16.2422 11.5781 15.2266 13.2266 14.1797 15.0703L13.0078 17.1328L4.64062 40.1484H1.17188L10.4062 14.6953C10.5469 14.3516 10.7109 13.8672 10.8984 13.2422C11.1016 12.6172 11.2891 11.9375 11.4609 11.2031C11.6484 10.4531 11.8047 9.67969 11.9297 8.88281C12.0703 8.07031 12.1406 7.3125 12.1406 6.60938C12.1406 6.14062 12.1016 5.70312 12.0234 5.29688C11.9609 4.89062 11.8438 4.54688 11.6719 4.26562C11.5 3.96875 11.2734 3.73438 10.9922 3.5625C10.7266 3.39062 10.3906 3.30469 9.98438 3.30469C9.29688 3.30469 8.57031 3.53125 7.80469 3.98438C7.05469 4.42188 6.28125 5.10156 5.48438 6.02344C4.6875 6.94531 3.875 8.11719 3.04688 9.53906C2.23438 10.9453 1.42969 12.6094 0.632812 14.5312L0 14.1094C0.859375 11.9844 1.72656 10.1797 2.60156 8.69531C3.49219 7.21094 4.38281 6.00781 5.27344 5.08594C6.17969 4.14844 7.07812 3.46875 7.96875 3.04688C8.875 2.625 9.77344 2.41406 10.6641 2.41406C11.5234 2.41406 12.2344 2.57812 12.7969 2.90625C13.375 3.23438 13.8281 3.6875 14.1562 4.26562C14.4844 4.82812 14.7109 5.49219 14.8359 6.25781C14.9766 7.00781 15.0469 7.8125 15.0469 8.67188C15.0469 9.26562 14.9922 9.95312 14.8828 10.7344C14.7734 11.5156 14.6016 12.3359 14.3672 13.1953C15.3984 11.4453 16.3984 9.89844 17.3672 8.55469C18.3359 7.21094 19.3047 6.08594 20.2734 5.17969C21.2422 4.25781 22.2266 3.57031 23.2266 3.11719C24.2266 2.64844 25.2734 2.41406 26.3672 2.41406C27.2266 2.41406 28.0391 2.55469 28.8047 2.83594C29.5859 3.11719 30.2656 3.53125 30.8438 4.07812C31.4219 4.60938 31.875 5.28125 32.2031 6.09375C32.5469 6.90625 32.7188 7.83594 32.7188 8.88281Z" fill="#D9C4C4"/>
<path d="M42.9141 52.4766C41.3984 52.4766 40.1406 52.2734 39.1406 51.8672C38.125 51.4609 37.3203 50.8203 36.7266 49.9453C36.4141 49.5234 36.1797 49.0703 36.0234 48.5859C35.8516 48.1172 35.7656 47.6484 35.7656 47.1797C35.7656 46.4766 35.9531 45.9219 36.3281 45.5156C36.6875 45.1094 37.1875 44.9062 37.8281 44.9062C38.375 44.9062 38.8047 45.0547 39.1172 45.3516C39.4297 45.6484 39.5859 46.0625 39.5859 46.5938C39.5859 47.0938 39.4531 47.5 39.1875 47.8125C38.9219 48.125 38.5859 48.2812 38.1797 48.2812C38.0078 48.2812 37.875 48.2578 37.7812 48.2109C37.6719 48.1641 37.5547 48.1406 37.4297 48.1406C37.3516 48.1406 37.2969 48.1562 37.2656 48.1875C37.2344 48.2344 37.2188 48.3203 37.2188 48.4453C37.2188 48.8828 37.3594 49.2812 37.6406 49.6406C37.9219 50.0156 38.3125 50.3359 38.8125 50.6016C39.3125 50.8828 39.9062 51.0938 40.5938 51.2344C41.2812 51.3906 42.0234 51.4688 42.8203 51.4688C43.9609 51.4688 45.0078 51.3047 45.9609 50.9766C46.9141 50.6484 47.7812 50.1328 48.5625 49.4297C49.3594 48.7422 50.0781 47.8594 50.7188 46.7812C51.375 45.7188 51.9766 44.4375 52.5234 42.9375L56.9766 30.6094C54.9766 33.9375 52.9922 36.4297 51.0234 38.0859C49.0547 39.7422 47.0547 40.5703 45.0234 40.5703C44.0547 40.5703 43.2266 40.3984 42.5391 40.0547C41.8672 39.6953 41.3125 39.2031 40.875 38.5781C40.4375 37.9375 40.1172 37.1953 39.9141 36.3516C39.7109 35.4922 39.6094 34.5547 39.6094 33.5391C39.6094 32.4453 39.7188 31.2969 39.9375 30.0938C40.1562 28.875 40.4688 27.6562 40.875 26.4375C41.4375 24.75 42.1094 23.2188 42.8906 21.8438C43.6719 20.4531 44.5156 19.2188 45.4219 18.1406C46.3438 17.0625 47.3047 16.1328 48.3047 15.3516C49.3203 14.5703 50.3281 13.9297 51.3281 13.4297C52.3438 12.9141 53.3359 12.5312 54.3047 12.2812C55.2891 12.0312 56.2109 11.9062 57.0703 11.9062C57.9609 11.9062 58.7031 12.0391 59.2969 12.3047C59.9062 12.5547 60.3906 12.9219 60.75 13.4062C61.1094 13.8906 61.3672 14.4766 61.5234 15.1641C61.6797 15.8516 61.7578 16.6172 61.7578 17.4609L63.6328 12.3516H67.1016L56.0391 42.75C54.8828 45.9219 53.1875 48.3359 50.9531 49.9922C48.7188 51.6484 46.0391 52.4766 42.9141 52.4766ZM45.8672 39.3984C46.7109 39.3984 47.5703 39.1797 48.4453 38.7422C49.3203 38.2891 50.1875 37.6797 51.0469 36.9141C51.9219 36.1328 52.7656 35.2266 53.5781 34.1953C54.3906 33.1484 55.1562 32.0391 55.875 30.8672C56.6094 29.6797 57.2812 28.4609 57.8906 27.2109C58.5 25.9609 59.0234 24.7344 59.4609 23.5312C59.9141 22.3125 60.2578 21.1562 60.4922 20.0625C60.7422 18.9531 60.8672 17.9609 60.8672 17.0859C60.8672 16.2891 60.7656 15.625 60.5625 15.0938C60.375 14.5469 60.1172 14.1094 59.7891 13.7812C59.4766 13.4375 59.1094 13.1953 58.6875 13.0547C58.2812 12.9141 57.8594 12.8438 57.4219 12.8438C56.5469 12.8438 55.5703 13.1172 54.4922 13.6641C53.4297 14.1953 52.3438 15.0156 51.2344 16.125C50.125 17.2188 49.0312 18.6094 47.9531 20.2969C46.8906 21.9688 45.9141 23.9375 45.0234 26.2031C44.2891 28.0938 43.7344 29.8438 43.3594 31.4531C43 33.0625 42.8203 34.4062 42.8203 35.4844C42.8203 36.7031 43.0625 37.6641 43.5469 38.3672C44.0469 39.0547 44.8203 39.3984 45.8672 39.3984Z" fill="#D9C4C4"/>
<path d="M80.6719 26.3203C80.6719 26.6016 80.5859 26.8359 80.4141 27.0234C80.2578 27.1953 80.0469 27.3438 79.7812 27.4688C79.5156 27.5938 79.1953 27.6953 78.8203 27.7734C78.4609 27.8516 78.0859 27.9219 77.6953 27.9844C77.3672 28.0469 76.9766 28.1953 76.5234 28.4297C76.0703 28.6641 75.6328 29.0234 75.2109 29.5078C74.7891 29.9766 74.4297 30.6016 74.1328 31.3828C73.8516 32.1484 73.7109 33.1016 73.7109 34.2422C73.7109 35.4141 73.8672 36.3906 74.1797 37.1719C74.5078 37.9375 74.9375 38.5547 75.4688 39.0234C76 39.4922 76.6016 39.8281 77.2734 40.0312C77.9609 40.2188 78.6641 40.3125 79.3828 40.3125C80.1953 40.3125 80.9688 40.1953 81.7031 39.9609C82.4375 39.7266 83.1484 39.375 83.8359 38.9062C84.5234 38.4375 85.2031 37.8438 85.875 37.125C86.5469 36.4062 87.2344 35.5625 87.9375 34.5938C88.7969 33.3906 89.6328 32.0703 90.4453 30.6328C91.2734 29.1797 92.0859 27.6719 92.8828 26.1094C93.6797 24.5312 94.4531 22.9297 95.2031 21.3047C95.9688 19.6797 96.7109 18.0859 97.4297 16.5234C98.1641 14.9609 98.875 13.4609 99.5625 12.0234C100.266 10.5859 100.945 9.27344 101.602 8.08594C102.289 6.85156 102.906 5.85938 103.453 5.10938C104.016 4.34375 104.547 3.76562 105.047 3.375C105.562 2.96875 106.078 2.70312 106.594 2.57812C107.109 2.4375 107.672 2.36719 108.281 2.36719C110.031 2.36719 111.297 2.74219 112.078 3.49219C112.859 4.24219 113.25 5.35938 113.25 6.84375C113.25 7.98438 113.055 9.34375 112.664 10.9219C112.273 12.5 111.781 14.1953 111.188 16.0078C110.594 17.8047 109.953 19.6641 109.266 21.5859C108.578 23.4922 107.938 25.3438 107.344 27.1406C106.75 28.9375 106.258 30.6172 105.867 32.1797C105.477 33.7266 105.281 35.0469 105.281 36.1406C105.281 37.3281 105.555 38.25 106.102 38.9062C106.648 39.5625 107.555 39.8906 108.82 39.8906C109.852 39.8906 110.844 39.6484 111.797 39.1641C112.766 38.6797 113.719 37.9609 114.656 37.0078C115.609 36.0391 116.57 34.8359 117.539 33.3984C118.523 31.9609 119.555 30.2891 120.633 28.3828L121.852 26.2266L122.484 26.6719L121.266 28.8281C120.109 30.875 119.016 32.6641 117.984 34.1953C116.953 35.7109 115.922 36.9766 114.891 37.9922C113.859 39.0078 112.805 39.7656 111.727 40.2656C110.664 40.7812 109.523 41.0391 108.305 41.0391C107.336 41.0391 106.484 40.8906 105.75 40.5938C105.016 40.2969 104.398 39.8906 103.898 39.375C103.398 38.8594 103.016 38.2578 102.75 37.5703C102.5 36.8672 102.375 36.1172 102.375 35.3203C102.375 34.6328 102.461 33.8203 102.633 32.8828C102.82 31.9453 103.062 30.9297 103.359 29.8359C103.672 28.7266 104.023 27.5625 104.414 26.3438C104.82 25.1094 105.242 23.8516 105.68 22.5703H95.8125C95.2344 23.7734 94.6406 24.9609 94.0312 26.1328C93.4375 27.3047 92.8359 28.4375 92.2266 29.5312C91.6328 30.625 91.0312 31.6641 90.4219 32.6484C89.8281 33.6172 89.2422 34.5 88.6641 35.2969C87.8984 36.3594 87.1406 37.2656 86.3906 38.0156C85.6562 38.75 84.9062 39.3594 84.1406 39.8438C83.375 40.3281 82.5938 40.6797 81.7969 40.8984C81 41.1172 80.1719 41.2266 79.3125 41.2266C77.2344 41.2266 75.6094 40.625 74.4375 39.4219C73.2812 38.2031 72.7031 36.4453 72.7031 34.1484C72.7031 32.9141 72.8672 31.7578 73.1953 30.6797C73.5234 29.5859 73.9766 28.6328 74.5547 27.8203C75.1328 27.0078 75.8125 26.3672 76.5938 25.8984C77.375 25.4297 78.2188 25.1953 79.125 25.1953C79.5781 25.1953 79.9453 25.2734 80.2266 25.4297C80.5234 25.5859 80.6719 25.8828 80.6719 26.3203ZM102.656 8.36719C102.234 9.16406 101.773 10.0625 101.273 11.0625C100.789 12.0625 100.281 13.125 99.75 14.25C99.2188 15.375 98.6641 16.5469 98.0859 17.7656C97.5234 18.9688 96.9453 20.1875 96.3516 21.4219H106.078C106.594 19.9219 107.094 18.4297 107.578 16.9453C108.078 15.4609 108.523 14.0391 108.914 12.6797C109.32 11.3203 109.641 10.0625 109.875 8.90625C110.125 7.75 110.25 6.75 110.25 5.90625C110.25 5.35938 110.195 4.91406 110.086 4.57031C109.977 4.22656 109.82 3.96094 109.617 3.77344C109.43 3.57031 109.195 3.4375 108.914 3.375C108.648 3.29688 108.352 3.25781 108.023 3.25781C107.508 3.25781 107.031 3.33594 106.594 3.49219C106.172 3.64844 105.758 3.92188 105.352 4.3125C104.945 4.70312 104.523 5.22656 104.086 5.88281C103.648 6.53906 103.172 7.36719 102.656 8.36719Z" fill="#D9C4C4"/>
<path d="M126.914 12.3516H130.383L124.406 28.7578C124.188 29.3672 123.969 29.9922 123.75 30.6328C123.531 31.2578 123.336 31.8828 123.164 32.5078C123.008 33.1172 122.875 33.7109 122.766 34.2891C122.672 34.8516 122.625 35.375 122.625 35.8594C122.625 36.9375 122.914 37.7969 123.492 38.4375C124.07 39.0781 124.953 39.3984 126.141 39.3984C127.188 39.3984 128.203 39.1719 129.188 38.7188C130.172 38.2656 131.141 37.5859 132.094 36.6797C133.062 35.7578 134.031 34.6094 135 33.2344C135.969 31.8594 136.969 30.2422 138 28.3828L139.148 26.3203L144.258 12.3516H147.727L141.75 28.7578C141.531 29.3672 141.312 29.9922 141.094 30.6328C140.875 31.2578 140.68 31.8828 140.508 32.5078C140.352 33.1172 140.219 33.7109 140.109 34.2891C140.016 34.8516 139.969 35.375 139.969 35.8594C139.969 36.9375 140.25 37.7969 140.812 38.4375C141.391 39.0781 142.281 39.3984 143.484 39.3984C144.531 39.3984 145.539 39.1719 146.508 38.7188C147.492 38.2656 148.461 37.5859 149.414 36.6797C150.383 35.7578 151.352 34.6094 152.32 33.2344C153.289 31.8438 154.297 30.2266 155.344 28.3828L156.562 26.2266L157.172 26.6719L155.977 28.8281C154.852 30.8594 153.766 32.6172 152.719 34.1016C151.688 35.5703 150.648 36.7891 149.602 37.7578C148.57 38.7109 147.508 39.4219 146.414 39.8906C145.336 40.3438 144.188 40.5703 142.969 40.5703C142.016 40.5703 141.172 40.4219 140.438 40.125C139.719 39.8438 139.109 39.4375 138.609 38.9062C138.125 38.375 137.758 37.7344 137.508 36.9844C137.258 36.2344 137.133 35.3984 137.133 34.4766C137.133 33.8672 137.188 33.2109 137.297 32.5078C137.406 31.7891 137.57 31.0547 137.789 30.3047C136.742 32.0703 135.734 33.6016 134.766 34.8984C133.797 36.1797 132.828 37.2422 131.859 38.0859C130.891 38.9297 129.891 39.5547 128.859 39.9609C127.844 40.3672 126.766 40.5703 125.625 40.5703C124.672 40.5703 123.828 40.4219 123.094 40.125C122.375 39.8438 121.773 39.4375 121.289 38.9062C120.789 38.375 120.414 37.7344 120.164 36.9844C119.914 36.2344 119.789 35.3984 119.789 34.4766C119.789 33.6641 119.891 32.7734 120.094 31.8047C120.281 30.8359 120.562 29.8203 120.938 28.7578L126.914 12.3516Z" fill="#D9C4C4"/>
<path d="M154.711 12.3516H161.555L163.781 6.21094H167.25L165.023 12.3516H172.055V13.2891H164.672L159.047 28.7578C158.828 29.3672 158.609 29.9922 158.391 30.6328C158.188 31.2734 158 31.9062 157.828 32.5312C157.672 33.1406 157.539 33.7344 157.43 34.3125C157.336 34.875 157.289 35.3906 157.289 35.8594C157.289 36.9375 157.578 37.7969 158.156 38.4375C158.75 39.0781 159.641 39.3984 160.828 39.3984C161.984 39.3984 163.109 39.1797 164.203 38.7422C165.297 38.3047 166.375 37.6328 167.438 36.7266C168.5 35.8203 169.555 34.6797 170.602 33.3047C171.648 31.9141 172.703 30.2734 173.766 28.3828L174.984 26.2266L175.617 26.6719L174.398 28.8281C173.164 31.0156 171.969 32.8594 170.812 34.3594C169.656 35.8438 168.508 37.0469 167.367 37.9688C166.242 38.8906 165.094 39.5547 163.922 39.9609C162.766 40.3672 161.562 40.5703 160.312 40.5703C159.359 40.5703 158.516 40.4219 157.781 40.125C157.047 39.8438 156.438 39.4375 155.953 38.9062C155.453 38.375 155.078 37.7344 154.828 36.9844C154.562 36.2344 154.43 35.3984 154.43 34.4766C154.43 33.6641 154.523 32.7734 154.711 31.8047C154.898 30.8359 155.188 29.8203 155.578 28.7578L161.203 13.2891H154.711V12.3516Z" fill="#D9C4C4"/>
<path d="M184.5 0H187.992L179.812 22.4297C180.875 20.6484 181.883 19.1016 182.836 17.7891C183.805 16.4609 184.766 15.3672 185.719 14.5078C186.672 13.6328 187.648 12.9844 188.648 12.5625C189.648 12.125 190.719 11.9062 191.859 11.9062C192.812 11.9062 193.648 12.0625 194.367 12.375C195.102 12.6875 195.711 13.1328 196.195 13.7109C196.695 14.2734 197.07 14.9531 197.32 15.75C197.57 16.5469 197.695 17.4375 197.695 18.4219C197.695 19.125 197.562 19.9531 197.297 20.9062C197.047 21.8594 196.727 22.875 196.336 23.9531C195.945 25.0312 195.523 26.1406 195.07 27.2812C194.617 28.4062 194.195 29.5 193.805 30.5625C193.414 31.625 193.086 32.6172 192.82 33.5391C192.57 34.4453 192.445 35.2188 192.445 35.8594C192.445 36.9375 192.727 37.7969 193.289 38.4375C193.867 39.0781 194.758 39.3984 195.961 39.3984C197.008 39.3984 198.016 39.1719 198.984 38.7188C199.969 38.2656 200.938 37.5859 201.891 36.6797C202.859 35.7578 203.828 34.6094 204.797 33.2344C205.766 31.8438 206.773 30.2266 207.82 28.3828L209.039 26.2266L209.672 26.6719L208.453 28.8281C207.312 30.8438 206.219 32.5938 205.172 34.0781C204.141 35.5469 203.102 36.7656 202.055 37.7344C201.023 38.6875 199.969 39.3984 198.891 39.8672C197.812 40.3359 196.664 40.5703 195.445 40.5703C194.492 40.5703 193.648 40.4219 192.914 40.125C192.195 39.8438 191.586 39.4375 191.086 38.9062C190.602 38.375 190.234 37.7344 189.984 36.9844C189.734 36.2344 189.609 35.3984 189.609 34.4766C189.609 33.8047 189.734 33 189.984 32.0625C190.25 31.1094 190.578 30.0859 190.969 28.9922C191.359 27.8984 191.781 26.7812 192.234 25.6406C192.688 24.4844 193.109 23.375 193.5 22.3125C193.891 21.25 194.211 20.2656 194.461 19.3594C194.727 18.4375 194.859 17.6719 194.859 17.0625C194.859 15.8438 194.57 14.875 193.992 14.1562C193.43 13.4375 192.547 13.0781 191.344 13.0781C190.281 13.0781 189.258 13.3281 188.273 13.8281C187.289 14.3281 186.273 15.125 185.227 16.2188C184.195 17.2969 183.109 18.6953 181.969 20.4141C180.844 22.1328 179.617 24.2188 178.289 26.6719L173.367 40.125H169.898L184.5 0Z" fill="#D9C4C4"/>
</svg>
